<svg width="22" height="22" viewBox="0 0 22 22" fill="none" xmlns="http://www.w3.org/2000/svg">
<g id="instagram" clip-path="url(#clip0_1_1392)">
<path id="Vector" d="M15.5 2.12256H6.5C4.01472 2.12256 2 4.13728 2 6.62256V15.6226C2 18.1078 4.01472 20.1226 6.5 20.1226H15.5C17.9853 20.1226 20 18.1078 20 15.6226V6.62256C20 4.13728 17.9853 2.12256 15.5 2.12256Z" stroke="#383638" stroke-width="2" stroke-linecap="round" stroke-linejoin="round"/>
<path id="Vector_2" d="M14.5986 10.5558C14.7096 11.3049 14.5817 12.0698 14.2329 12.7419C13.8842 13.4141 13.3324 13.9591 12.656 14.2995C11.9797 14.64 11.2132 14.7585 10.4656 14.6382C9.71798 14.5179 9.02735 14.1649 8.49192 13.6295C7.95649 13.094 7.60352 12.4034 7.48323 11.6558C7.36293 10.9082 7.48142 10.1417 7.82186 9.46537C8.16229 8.789 8.70733 8.2372 9.37945 7.88845C10.0516 7.5397 10.8165 7.41176 11.5656 7.52283C12.3296 7.63613 13.0369 7.99215 13.5831 8.53831C14.1292 9.08446 14.4853 9.7918 14.5986 10.5558Z" stroke="#383638" stroke-width="2" stroke-linecap="round" stroke-linejoin="round"/>
<path id="Vector_3" d="M15.9492 6.17285H15.9582" stroke="#383638" stroke-width="2" stroke-linecap="round" stroke-linejoin="round"/>
</g>
<defs>
<clipPath id="clip0_1_1392">
<rect width="21.6" height="21.6" fill="white" transform="translate(0.199219 0.322754)"/>
</clipPath>
</defs>
</svg>
