<svg width="211" height="71" viewBox="0 0 211 71" fill="none" xmlns="http://www.w3.org/2000/svg">
<g id="Group 2140">
<g id="Group 2138">
<ellipse id="Ellipse 58" cx="2.39812" cy="2.5" rx="2.39812" ry="2.5" fill="#FF5C00"/>
<ellipse id="Ellipse 70" cx="2.39812" cy="46.2843" rx="2.39812" ry="2.5" fill="#FF5C00"/>
<ellipse id="Ellipse 60" cx="40.0533" cy="2.5" rx="2.39812" ry="2.5" fill="#FF5C00"/>
<ellipse id="Ellipse 71" cx="40.0533" cy="46.2843" rx="2.39812" ry="2.5" fill="#FF5C00"/>
<ellipse id="Ellipse 62" cx="77.7084" cy="2.5" rx="2.39812" ry="2.5" fill="#FF5C00"/>
<ellipse id="Ellipse 72" cx="77.7084" cy="46.2843" rx="2.39812" ry="2.5" fill="#FF5C00"/>
<ellipse id="Ellipse 64" cx="2.39812" cy="24.3921" rx="2.39812" ry="2.5" fill="#FF5C00"/>
<ellipse id="Ellipse 73" cx="2.39812" cy="68.1764" rx="2.39812" ry="2.5" fill="#FF5C00"/>
<ellipse id="Ellipse 66" cx="40.0533" cy="24.3921" rx="2.39812" ry="2.5" fill="#FF5C00"/>
<ellipse id="Ellipse 74" cx="40.0533" cy="68.1764" rx="2.39812" ry="2.5" fill="#FF5C00"/>
<ellipse id="Ellipse 68" cx="77.7084" cy="24.3921" rx="2.39812" ry="2.5" fill="#FF5C00"/>
<ellipse id="Ellipse 75" cx="77.7084" cy="68.1764" rx="2.39812" ry="2.5" fill="#FF5C00"/>
<ellipse id="Ellipse 59" cx="21.2258" cy="2.5" rx="2.39812" ry="2.5" fill="#FF5C00"/>
<ellipse id="Ellipse 76" cx="21.2258" cy="46.2843" rx="2.39812" ry="2.5" fill="#FF5C00"/>
<ellipse id="Ellipse 61" cx="58.8809" cy="2.5" rx="2.39812" ry="2.5" fill="#FF5C00"/>
<ellipse id="Ellipse 77" cx="58.8809" cy="46.2843" rx="2.39812" ry="2.5" fill="#FF5C00"/>
<ellipse id="Ellipse 63" cx="96.5361" cy="2.5" rx="2.39812" ry="2.5" fill="#FF5C00"/>
<ellipse id="Ellipse 78" cx="96.5361" cy="46.2843" rx="2.39812" ry="2.5" fill="#FF5C00"/>
<ellipse id="Ellipse 65" cx="21.2258" cy="24.3921" rx="2.39812" ry="2.5" fill="#FF5C00"/>
<ellipse id="Ellipse 79" cx="21.2258" cy="68.1764" rx="2.39812" ry="2.5" fill="#FF5C00"/>
<ellipse id="Ellipse 67" cx="58.8809" cy="24.3921" rx="2.39812" ry="2.5" fill="#FF5C00"/>
<ellipse id="Ellipse 80" cx="58.8809" cy="68.1764" rx="2.39812" ry="2.5" fill="#FF5C00"/>
<ellipse id="Ellipse 69" cx="96.5361" cy="24.3921" rx="2.39812" ry="2.5" fill="#FF5C00"/>
<ellipse id="Ellipse 81" cx="96.5361" cy="68.1764" rx="2.39812" ry="2.5" fill="#FF5C00"/>
</g>
<g id="Group 2139">
<ellipse id="Ellipse 58_2" cx="114.23" cy="2.62469" rx="2.5" ry="2.62469" fill="#FF5C00"/>
<ellipse id="Ellipse 70_2" cx="114.23" cy="46.4091" rx="2.5" ry="2.62469" fill="#FF5C00"/>
<ellipse id="Ellipse 60_2" cx="151.62" cy="2.62469" rx="2.5" ry="2.62469" fill="#FF5C00"/>
<ellipse id="Ellipse 71_2" cx="151.62" cy="46.4091" rx="2.5" ry="2.62469" fill="#FF5C00"/>
<ellipse id="Ellipse 62_2" cx="189.01" cy="2.62469" rx="2.5" ry="2.62469" fill="#FF5C00"/>
<ellipse id="Ellipse 72_2" cx="189.01" cy="46.4091" rx="2.5" ry="2.62469" fill="#FF5C00"/>
<ellipse id="Ellipse 64_2" cx="114.23" cy="24.5168" rx="2.5" ry="2.62469" fill="#FF5C00"/>
<ellipse id="Ellipse 73_2" cx="114.23" cy="68.301" rx="2.5" ry="2.62469" fill="#FF5C00"/>
<ellipse id="Ellipse 66_2" cx="151.62" cy="24.5168" rx="2.5" ry="2.62469" fill="#FF5C00"/>
<ellipse id="Ellipse 74_2" cx="151.62" cy="68.301" rx="2.5" ry="2.62469" fill="#FF5C00"/>
<ellipse id="Ellipse 68_2" cx="189.01" cy="24.5168" rx="2.5" ry="2.62469" fill="#FF5C00"/>
<ellipse id="Ellipse 75_2" cx="189.01" cy="68.301" rx="2.5" ry="2.62469" fill="#FF5C00"/>
<ellipse id="Ellipse 59_2" cx="132.926" cy="2.62469" rx="2.5" ry="2.62469" fill="#FF5C00"/>
<ellipse id="Ellipse 76_2" cx="132.926" cy="46.4091" rx="2.5" ry="2.62469" fill="#FF5C00"/>
<ellipse id="Ellipse 61_2" cx="170.316" cy="2.62469" rx="2.5" ry="2.62469" fill="#FF5C00"/>
<ellipse id="Ellipse 77_2" cx="170.316" cy="46.4091" rx="2.5" ry="2.62469" fill="#FF5C00"/>
<ellipse id="Ellipse 63_2" cx="207.706" cy="2.62469" rx="2.5" ry="2.62469" fill="#FF5C00"/>
<ellipse id="Ellipse 78_2" cx="207.706" cy="46.4091" rx="2.5" ry="2.62469" fill="#FF5C00"/>
<ellipse id="Ellipse 65_2" cx="132.926" cy="24.5168" rx="2.5" ry="2.62469" fill="#FF5C00"/>
<ellipse id="Ellipse 79_2" cx="132.926" cy="68.301" rx="2.5" ry="2.62469" fill="#FF5C00"/>
<ellipse id="Ellipse 67_2" cx="170.316" cy="24.5168" rx="2.5" ry="2.62469" fill="#FF5C00"/>
<ellipse id="Ellipse 80_2" cx="170.316" cy="68.301" rx="2.5" ry="2.62469" fill="#FF5C00"/>
<ellipse id="Ellipse 69_2" cx="207.706" cy="24.5168" rx="2.5" ry="2.62469" fill="#FF5C00"/>
<ellipse id="Ellipse 81_2" cx="207.706" cy="68.301" rx="2.5" ry="2.62469" fill="#FF5C00"/>
</g>
</g>
</svg>
