<svg width="104" height="76" viewBox="0 0 104 76" fill="none" xmlns="http://www.w3.org/2000/svg">
<g id="Group 2137">
<ellipse id="Ellipse 58" cx="4.79624" cy="5" rx="4.79624" ry="5" fill="#377DFF"/>
<ellipse id="Ellipse 70" cx="4.79624" cy="48.7843" rx="4.79624" ry="5" fill="#377DFF"/>
<ellipse id="Ellipse 60" cx="42.4515" cy="5" rx="4.79624" ry="5" fill="#377DFF"/>
<ellipse id="Ellipse 71" cx="42.4515" cy="48.7843" rx="4.79624" ry="5" fill="#377DFF"/>
<ellipse id="Ellipse 62" cx="80.1065" cy="5" rx="4.79624" ry="5" fill="#377DFF"/>
<ellipse id="Ellipse 72" cx="80.1065" cy="48.7843" rx="4.79624" ry="5" fill="#377DFF"/>
<ellipse id="Ellipse 64" cx="4.79624" cy="26.8921" rx="4.79624" ry="5" fill="#377DFF"/>
<ellipse id="Ellipse 73" cx="4.79624" cy="70.6764" rx="4.79624" ry="5" fill="#377DFF"/>
<ellipse id="Ellipse 66" cx="42.4515" cy="26.8921" rx="4.79624" ry="5" fill="#377DFF"/>
<ellipse id="Ellipse 74" cx="42.4515" cy="70.6764" rx="4.79624" ry="5" fill="#377DFF"/>
<ellipse id="Ellipse 68" cx="80.1065" cy="26.8921" rx="4.79624" ry="5" fill="#377DFF"/>
<ellipse id="Ellipse 75" cx="80.1065" cy="70.6764" rx="4.79624" ry="5" fill="#377DFF"/>
<ellipse id="Ellipse 59" cx="23.6239" cy="5" rx="4.79624" ry="5" fill="#377DFF"/>
<ellipse id="Ellipse 76" cx="23.6239" cy="48.7843" rx="4.79624" ry="5" fill="#377DFF"/>
<ellipse id="Ellipse 61" cx="61.2789" cy="5" rx="4.79624" ry="5" fill="#377DFF"/>
<ellipse id="Ellipse 77" cx="61.2789" cy="48.7843" rx="4.79624" ry="5" fill="#377DFF"/>
<ellipse id="Ellipse 63" cx="98.9342" cy="5" rx="4.79624" ry="5" fill="#377DFF"/>
<ellipse id="Ellipse 78" cx="98.9342" cy="48.7843" rx="4.79624" ry="5" fill="#377DFF"/>
<ellipse id="Ellipse 65" cx="23.6239" cy="26.8921" rx="4.79624" ry="5" fill="#377DFF"/>
<ellipse id="Ellipse 79" cx="23.6239" cy="70.6764" rx="4.79624" ry="5" fill="#377DFF"/>
<ellipse id="Ellipse 67" cx="61.2789" cy="26.8921" rx="4.79624" ry="5" fill="#377DFF"/>
<ellipse id="Ellipse 80" cx="61.2789" cy="70.6764" rx="4.79624" ry="5" fill="#377DFF"/>
<ellipse id="Ellipse 69" cx="98.9342" cy="26.8921" rx="4.79624" ry="5" fill="#377DFF"/>
<ellipse id="Ellipse 81" cx="98.9342" cy="70.6764" rx="4.79624" ry="5" fill="#377DFF"/>
</g>
</svg>
