<svg width="100" height="72" viewBox="0 0 100 72" fill="none" xmlns="http://www.w3.org/2000/svg">
<g id="Group 2140">
<ellipse id="Ellipse 58" cx="3.42578" cy="2.92889" rx="2.5" ry="2.62469" fill="#377DFF"/>
<ellipse id="Ellipse 70" cx="3.42578" cy="46.7133" rx="2.5" ry="2.62469" fill="#377DFF"/>
<ellipse id="Ellipse 60" cx="40.8164" cy="2.92889" rx="2.5" ry="2.62469" fill="#377DFF"/>
<ellipse id="Ellipse 71" cx="40.8164" cy="46.7133" rx="2.5" ry="2.62469" fill="#377DFF"/>
<ellipse id="Ellipse 62" cx="78.207" cy="2.92889" rx="2.5" ry="2.62469" fill="#377DFF"/>
<ellipse id="Ellipse 72" cx="78.207" cy="46.7133" rx="2.5" ry="2.62469" fill="#377DFF"/>
<ellipse id="Ellipse 64" cx="3.42578" cy="24.821" rx="2.5" ry="2.62469" fill="#377DFF"/>
<ellipse id="Ellipse 73" cx="3.42578" cy="68.6052" rx="2.5" ry="2.62469" fill="#377DFF"/>
<ellipse id="Ellipse 66" cx="40.8164" cy="24.821" rx="2.5" ry="2.62469" fill="#377DFF"/>
<ellipse id="Ellipse 74" cx="40.8164" cy="68.6052" rx="2.5" ry="2.62469" fill="#377DFF"/>
<ellipse id="Ellipse 68" cx="78.207" cy="24.821" rx="2.5" ry="2.62469" fill="#377DFF"/>
<ellipse id="Ellipse 75" cx="78.207" cy="68.6052" rx="2.5" ry="2.62469" fill="#377DFF"/>
<ellipse id="Ellipse 59" cx="22.1211" cy="2.92889" rx="2.5" ry="2.62469" fill="#377DFF"/>
<ellipse id="Ellipse 76" cx="22.1211" cy="46.7133" rx="2.5" ry="2.62469" fill="#377DFF"/>
<ellipse id="Ellipse 61" cx="59.5117" cy="2.92889" rx="2.5" ry="2.62469" fill="#377DFF"/>
<ellipse id="Ellipse 77" cx="59.5117" cy="46.7133" rx="2.5" ry="2.62469" fill="#377DFF"/>
<ellipse id="Ellipse 63" cx="96.9023" cy="2.92889" rx="2.5" ry="2.62469" fill="#377DFF"/>
<ellipse id="Ellipse 78" cx="96.9023" cy="46.7133" rx="2.5" ry="2.62469" fill="#377DFF"/>
<ellipse id="Ellipse 65" cx="22.1211" cy="24.821" rx="2.5" ry="2.62469" fill="#377DFF"/>
<ellipse id="Ellipse 79" cx="22.1211" cy="68.6052" rx="2.5" ry="2.62469" fill="#377DFF"/>
<ellipse id="Ellipse 67" cx="59.5117" cy="24.821" rx="2.5" ry="2.62469" fill="#377DFF"/>
<ellipse id="Ellipse 80" cx="59.5117" cy="68.6052" rx="2.5" ry="2.62469" fill="#377DFF"/>
<ellipse id="Ellipse 69" cx="96.9023" cy="24.821" rx="2.5" ry="2.62469" fill="#377DFF"/>
<ellipse id="Ellipse 81" cx="96.9023" cy="68.6052" rx="2.5" ry="2.62469" fill="#377DFF"/>
</g>
</svg>
