<svg width="22" height="22" viewBox="0 0 22 22" fill="none" xmlns="http://www.w3.org/2000/svg">
<g id="linkedin">
<path id="Vector" d="M14.5992 7.52271C16.0314 7.52271 17.4049 8.09163 18.4176 9.10433C19.4303 10.117 19.9992 11.4905 19.9992 12.9227V19.2227H16.3992V12.9227C16.3992 12.4453 16.2096 11.9875 15.872 11.6499C15.5344 11.3123 15.0766 11.1227 14.5992 11.1227C14.1218 11.1227 13.664 11.3123 13.3264 11.6499C12.9889 11.9875 12.7992 12.4453 12.7992 12.9227V19.2227H9.19922V12.9227C9.19922 11.4905 9.76815 10.117 10.7808 9.10433C11.7935 8.09163 13.167 7.52271 14.5992 7.52271V7.52271Z" stroke="#383638" stroke-width="2" stroke-linecap="round" stroke-linejoin="round"/>
<path id="Vector_2" d="M5.6 8.42285H2V19.2229H5.6V8.42285Z" stroke="#383638" stroke-width="2" stroke-linecap="round" stroke-linejoin="round"/>
<path id="Vector_3" d="M3.8 5.72256C4.79411 5.72256 5.6 4.91667 5.6 3.92256C5.6 2.92845 4.79411 2.12256 3.8 2.12256C2.80589 2.12256 2 2.92845 2 3.92256C2 4.91667 2.80589 5.72256 3.8 5.72256Z" stroke="#383638" stroke-width="2" stroke-linecap="round" stroke-linejoin="round"/>
</g>
</svg>
