<svg width="32" height="31" viewBox="0 0 32 31" fill="none" xmlns="http://www.w3.org/2000/svg">
<g id="Group">
<path id="Vector" d="M19.9974 1.62896L27.3741 14.3766C27.7764 15.0719 27.7764 15.9285 27.3741 16.6238L19.9974 29.3714C19.5951 30.0667 18.8516 30.495 18.0469 30.495H22.3698C23.1745 30.495 23.918 30.0667 24.3203 29.3714L31.697 16.6238C32.0993 15.9285 32.0993 15.0719 31.697 14.3766L24.3203 1.62896C23.918 0.93366 23.1744 0.505371 22.3698 0.505371H18.0469C18.8516 0.505371 19.5951 0.93366 19.9974 1.62896Z" fill="#39435A"/>
<path id="Vector_2" d="M19.9974 1.62896L20.3261 2.19697C20.8848 2.20512 21.465 2.25091 22.0572 2.33777C23.2357 2.51074 24.3221 2.826 25.2503 3.23638L24.3201 1.62896C23.918 0.93366 23.1745 0.505371 22.3698 0.505371H18.0469C18.8516 0.505371 19.5951 0.93366 19.9974 1.62896Z" fill="#2C374C"/>
<path id="Vector_3" d="M11.6771 1.62896L19.0538 14.3766C19.4561 15.0719 19.4561 15.9285 19.0538 16.6238L11.6771 29.3714C11.2748 30.0667 10.5313 30.495 9.72656 30.495H14.0495C14.8542 30.495 15.5977 30.0667 16 29.3714L23.3767 16.6238C23.779 15.9285 23.779 15.0719 23.3767 14.3766L16 1.62896C15.5976 0.93366 14.8541 0.505371 14.0494 0.505371H9.72656C10.5312 0.505371 11.2747 0.93366 11.6771 1.62896Z" fill="#39435A"/>
<path id="Vector_4" d="M12.0014 29.3712L4.62463 16.6235C4.22234 15.9282 4.22234 15.0717 4.62463 14.3764L12.0014 1.62871C12.4036 0.933416 13.1472 0.505127 13.9519 0.505127H9.62897C8.82427 0.505127 8.08073 0.933416 7.67844 1.62871L0.30172 14.3764C-0.100573 15.0717 -0.100573 15.9282 0.30172 16.6235L7.67844 29.3712C8.08073 30.0665 8.82427 30.4948 9.62897 30.4948H13.9519C13.1472 30.4948 12.4036 30.0665 12.0014 29.3712Z" fill="#435F94"/>
<path id="Vector_5" d="M16.2633 29.3712L8.8866 16.6236C8.4843 15.9283 8.4843 15.0717 8.8866 14.3764L16.2633 1.62874C16.6656 0.93366 17.4091 0.505371 18.2138 0.505371H13.8909C13.0862 0.505371 12.3427 0.93366 11.9404 1.62896L4.56368 14.3766C4.16139 15.0719 4.16139 15.9285 4.56368 16.6238L11.9404 29.3714C12.3427 30.0667 13.0862 30.495 13.8909 30.495H18.2138C17.4091 30.4948 16.6656 30.0665 16.2633 29.3712Z" fill="#377DFF"/>
<path id="Vector_6" d="M20.6068 29.3712L13.2301 16.6236C12.8278 15.9283 12.8278 15.0717 13.2301 14.3764L20.6068 1.62874C21.0091 0.93366 21.7527 0.505371 22.5574 0.505371H18.2344C17.4297 0.505371 16.6862 0.93366 16.2839 1.62896L8.90719 14.3766C8.5049 15.0719 8.5049 15.9285 8.90719 16.6238L16.2839 29.3714C16.6862 30.0667 17.4297 30.495 18.2344 30.495H22.5574C21.7527 30.4948 21.0091 30.0665 20.6068 29.3712Z" fill="#37DBFF"/>
</g>
</svg>
