<svg width="99" height="71" viewBox="0 0 99 71" fill="none" xmlns="http://www.w3.org/2000/svg">
<g id="Group 2165">
<ellipse id="Ellipse 58" cx="2.5" cy="2.62469" rx="2.5" ry="2.62469" fill="#FF5C00"/>
<ellipse id="Ellipse 70" cx="2.5" cy="46.4091" rx="2.5" ry="2.62469" fill="#FF5C00"/>
<ellipse id="Ellipse 60" cx="39.8906" cy="2.62469" rx="2.5" ry="2.62469" fill="#FF5C00"/>
<ellipse id="Ellipse 71" cx="39.8906" cy="46.4091" rx="2.5" ry="2.62469" fill="#FF5C00"/>
<ellipse id="Ellipse 62" cx="77.2812" cy="2.62469" rx="2.5" ry="2.62469" fill="#FF5C00"/>
<ellipse id="Ellipse 72" cx="77.2812" cy="46.4091" rx="2.5" ry="2.62469" fill="#FF5C00"/>
<ellipse id="Ellipse 64" cx="2.5" cy="24.5168" rx="2.5" ry="2.62469" fill="#FF5C00"/>
<ellipse id="Ellipse 73" cx="2.5" cy="68.301" rx="2.5" ry="2.62469" fill="#FF5C00"/>
<ellipse id="Ellipse 66" cx="39.8906" cy="24.5168" rx="2.5" ry="2.62469" fill="#FF5C00"/>
<ellipse id="Ellipse 74" cx="39.8906" cy="68.301" rx="2.5" ry="2.62469" fill="#FF5C00"/>
<ellipse id="Ellipse 68" cx="77.2812" cy="24.5168" rx="2.5" ry="2.62469" fill="#FF5C00"/>
<ellipse id="Ellipse 75" cx="77.2812" cy="68.301" rx="2.5" ry="2.62469" fill="#FF5C00"/>
<ellipse id="Ellipse 59" cx="21.1953" cy="2.62469" rx="2.5" ry="2.62469" fill="#FF5C00"/>
<ellipse id="Ellipse 76" cx="21.1953" cy="46.4091" rx="2.5" ry="2.62469" fill="#FF5C00"/>
<ellipse id="Ellipse 61" cx="58.5859" cy="2.62469" rx="2.5" ry="2.62469" fill="#FF5C00"/>
<ellipse id="Ellipse 77" cx="58.5859" cy="46.4091" rx="2.5" ry="2.62469" fill="#FF5C00"/>
<ellipse id="Ellipse 63" cx="95.9766" cy="2.62469" rx="2.5" ry="2.62469" fill="#FF5C00"/>
<ellipse id="Ellipse 78" cx="95.9766" cy="46.4091" rx="2.5" ry="2.62469" fill="#FF5C00"/>
<ellipse id="Ellipse 65" cx="21.1953" cy="24.5168" rx="2.5" ry="2.62469" fill="#FF5C00"/>
<ellipse id="Ellipse 79" cx="21.1953" cy="68.301" rx="2.5" ry="2.62469" fill="#FF5C00"/>
<ellipse id="Ellipse 67" cx="58.5859" cy="24.5168" rx="2.5" ry="2.62469" fill="#FF5C00"/>
<ellipse id="Ellipse 80" cx="58.5859" cy="68.301" rx="2.5" ry="2.62469" fill="#FF5C00"/>
<ellipse id="Ellipse 69" cx="95.9766" cy="24.5168" rx="2.5" ry="2.62469" fill="#FF5C00"/>
<ellipse id="Ellipse 81" cx="95.9766" cy="68.301" rx="2.5" ry="2.62469" fill="#FF5C00"/>
</g>
</svg>
