<svg width="22" height="22" viewBox="0 0 22 22" fill="none" xmlns="http://www.w3.org/2000/svg">
<g id="twitter" clip-path="url(#clip0_1_1409)">
<path id="Vector" d="M20.8977 3.02272C20.0358 3.63065 19.0816 4.09562 18.0717 4.39972C17.5296 3.77648 16.8093 3.33474 16.008 3.13426C15.2067 2.93377 14.3632 2.9842 13.5915 3.27873C12.8199 3.57326 12.1573 4.09768 11.6933 4.78107C11.2294 5.46445 10.9866 6.27382 10.9977 7.09972V7.99972C9.41603 8.04073 7.8488 7.68995 6.43556 6.97862C5.02233 6.26729 3.80694 5.21749 2.89766 3.92272C2.89766 3.92272 -0.702344 12.0227 7.39766 15.6227C5.54413 16.8809 3.3361 17.5118 1.09766 17.4227C9.19766 21.9227 19.0977 17.4227 19.0977 7.07272C19.0968 6.82203 19.0727 6.57196 19.0257 6.32572C19.9442 5.41987 20.5924 4.27616 20.8977 3.02272V3.02272Z" stroke="#383638" stroke-width="2" stroke-linecap="round" stroke-linejoin="round"/>
</g>
<defs>
<clipPath id="clip0_1_1409">
<rect width="21.6" height="21.6" fill="white" transform="translate(0.199219 0.322754)"/>
</clipPath>
</defs>
</svg>
