<?xml version="1.0" encoding="utf-8"?>
<!-- Svg Vector Icons : http://www.onlinewebfonts.com/icon -->
<!DOCTYPE svg PUBLIC "-//W3C//DTD SVG 1.1//EN" "http://www.w3.org/Graphics/SVG/1.1/DTD/svg11.dtd">
<svg version="1.1" xmlns="http://www.w3.org/2000/svg" xmlns:xlink="http://www.w3.org/1999/xlink" x="0px" y="0px" viewBox="0 0 256 256" enable-background="new 0 0 256 256" xml:space="preserve">
<metadata> Svg Vector Icons : http://www.onlinewebfonts.com/icon </metadata>
<g><g><g><g><path fill="#000000" d="M134.1,245.9C65.7,245.9,10,190.2,10,121.8c0-47.4,26.4-90,68.9-111.1c1.9-0.9,4.2-0.6,5.7,0.9c1.5,1.5,1.9,3.8,1,5.7C77.8,33,73.8,49.9,73.8,67.6c0,63,51.2,114.2,114.2,114.2c17.8,0,34.9-4,50.8-11.9c1.9-0.9,4.2-0.6,5.7,0.9c1.5,1.5,1.9,3.8,0.9,5.7C224.4,219.3,181.8,245.9,134.1,245.9z"/></g></g><g></g><g></g><g></g><g></g><g></g><g></g><g></g><g></g><g></g><g></g><g></g><g></g><g></g><g></g><g></g></g></g>
</svg>